<svg width="250" height="250" viewBox="0 0 250 250" fill="none" xmlns="http://www.w3.org/2000/svg">
<circle cx="125" cy="125" r="124.5" fill="#D9D9D9" stroke="black"/>
<path d="M114.452 124.998C132.901 124.998 147.854 108.212 147.854 87.4991C147.854 66.7867 132.901 50 114.452 50C96.0033 50 81.051 66.7867 81.051 87.4991C81.051 108.212 96.0033 124.998 114.452 124.998ZM137.833 134.373H133.475C127.682 137.361 121.237 139.06 114.452 139.06C107.668 139.06 101.248 137.361 95.4292 134.373H91.0714C71.7091 134.373 56 152.009 56 173.747V185.934C56 193.698 61.6104 199.996 68.5255 199.996H140.26C139.634 198.004 139.373 195.895 139.582 193.756L141.356 175.915L141.669 172.663L143.731 170.349L163.902 147.703C157.509 139.588 148.245 134.373 137.833 134.373V134.373ZM149.654 176.94L147.88 194.811C147.593 197.799 149.837 200.319 152.472 199.967L168.364 197.975L204.349 157.576L185.639 136.57L149.654 176.94V176.94ZM221.18 128.777L211.29 117.674C208.863 114.95 204.897 114.95 202.47 117.674L192.606 128.748L191.536 129.949L210.272 150.955L221.18 138.709C223.607 135.955 223.607 131.531 221.18 128.777V128.777Z" fill="black"/>
</svg>
