<svg width="250" height="250" viewBox="0 0 250 250" fill="none" xmlns="http://www.w3.org/2000/svg">
<circle cx="125" cy="125" r="124.5" fill="#D9D9D9" stroke="black"/>
<path d="M125 131.25C140.527 131.25 153.125 118.652 153.125 103.125C153.125 87.5977 140.527 75 125 75C109.473 75 96.875 87.5977 96.875 103.125C96.875 118.652 109.473 131.25 125 131.25ZM150 137.5H139.238C134.902 139.492 130.078 140.625 125 140.625C119.922 140.625 115.117 139.492 110.762 137.5H100C86.1914 137.5 75 148.691 75 162.5V165.625C75 170.801 79.1992 175 84.375 175H165.625C170.801 175 175 170.801 175 165.625V162.5C175 148.691 163.809 137.5 150 137.5Z" fill="black"/>
</svg>
